Stormy Monday.1988.DVDRip.x264.AAC-BeLLBoY


IMDB:  http://www.imdb.com/title/tt0096180/



Cast: 

Director & writer: 

        * Mike Figgis

Actors: 

	* Melanie Griffith
	* Tommy Lee Jones
        * Sting
        * Sean Bean
        * James Cosmo



Plot: 

When a corrupt American businessman tries to strong arm his way into businesses in Newcastle, England, he is thwarted by an club attendant and his waitress girlfriend.



Info: 

[code]General
Format                           : MPEG-4
Format profile                   : Sony PSP
Codec ID                         : MSNV
File size                        : 1.05 GiB
Duration                         : 1h 28mn
Overall bit rate                 : 1 696 Kbps

Video
ID                               : 1
Format                           : AVC
Format/Info                      : Advanced Video Codec
Format profile                   : High@L3.1
Format settings, CABAC           : Yes
Format settings, ReFrames        : 4 frames
Codec ID                         : avc1
Codec ID/Info                    : Advanced Video Coding
Duration                         : 1h 28mn
Bit rate mode                    : Variable
Bit rate                         : 1 500 Kbps
Maximum bit rate                 : 3 951 Kbps
Width                            : 720 pixels
Height                           : 384 pixels
Display aspect ratio             : 1.875
Frame rate mode                  : Constant
Frame rate                       : 25.000 fps
Resolution                       : 24 bits
Colorimetry                      : 4:2:0
Scan type                        : Progressive
Bits/(Pixel*Frame)               : 0.217
Stream size                      : 954 MiB (88%)
Writing library                  : x264 core 67 r1162M f7bfcfa
Encoding settings                : cabac=1 / 4 reference frames / Trellis=1

Audio
ID                               : 2
Format                           : AAC
Format/Info                      : Advanced Audio Codec
Format version                   : Version 4
Format profile                   : LC
Format settings, SBR             : No
Codec ID                         : 40
Duration                         : 1h 28mn
Bit rate mode                    : Variable
Bit rate                         : 192 Kbps
Maximum bit rate                 : 225 Kbps
Channel(s)                       : 2 channels
Channel positions                : L R
Sampling rate                    : 48.0 KHz
Resolution                       : 16 bits
Stream size                      : 122 MiB (11%)
Title                            : English AAC 2
Language                         : English[/code]



Screens:  
http://i279.photobucket.com/albums/kk160/room101bellboy/My%20uploads/Movies/Stormy%20Monday/vlcsnap-00001.png 
http://i279.photobucket.com/albums/kk160/room101bellboy/My%20uploads/Movies/Stormy%20Monday/vlcsnap-00002.png 
http://i279.photobucket.com/albums/kk160/room101bellboy/My%20uploads/Movies/Stormy%20Monday/vlcsnap-00003.png 
http://i279.photobucket.com/albums/kk160/room101bellboy/My%20uploads/Movies/Stormy%20Monday/vlcsnap-00004.png



Notes: 

Subtitles: None. 

Source: DVD Pal. 

Ripped and encoded by BeLLBoY

Info hash 4248FA53 3C28B42C 7E5BCAF8 C9DA2C96 93CB64D9 


..........................................................................


Report bad torrents here:  http://forum.suprbay.org/forumdisplay.php?fid=29

My uploads:  http://forum.suprbay.org/showthread.php?tid=31015


..........................................................................





